<svg version="1.1" xmlns="http://www.w3.org/2000/svg" viewBox="0, 0, 400,400" width="20px" height="20px">
    <g>
        <path id="path0" d="M115.200 13.259 C 103.112 14.493,91.643 17.327,81.400 21.611 C 79.957 22.214,71.428 26.413,70.200 27.124 C 64.883 30.204,62.716 31.601,59.122 34.261 C 49.327 41.514,41.514 49.327,34.261 59.122 C 31.601 62.716,30.204 64.883,27.124 70.200 C 16.702 88.191,11.163 113.624,13.212 134.086 C 15.681 158.746,23.643 178.181,39.034 197.118 C 42.287 201.120,52.994 211.412,56.157 213.577 C 56.621 213.894,57.090 214.263,57.200 214.396 C 58.972 216.546,75.457 226.079,81.500 228.447 C 81.995 228.641,82.850 228.980,83.400 229.200 C 83.950 229.420,84.805 229.756,85.300 229.946 C 85.795 230.137,86.650 230.476,87.200 230.699 C 88.431 231.199,92.857 232.534,96.600 233.536 C 114.518 238.330,135.568 238.344,153.200 233.573 C 155.730 232.888,158.297 232.234,158.905 232.118 C 159.513 232.002,160.108 231.749,160.229 231.554 C 160.349 231.359,160.799 231.200,161.229 231.200 C 161.659 231.200,162.368 231.020,162.805 230.800 C 163.242 230.580,163.958 230.220,164.395 230.000 C 164.832 229.780,165.374 229.600,165.599 229.600 C 167.463 229.600,184.444 220.605,188.758 217.333 C 191.176 215.498,190.285 214.879,201.800 226.400 C 207.517 232.120,212.331 236.800,212.497 236.800 C 212.893 236.800,236.800 212.893,236.800 212.497 C 236.800 212.331,232.120 207.517,226.400 201.800 C 214.879 190.285,215.498 191.176,217.333 188.758 C 218.848 186.761,224.000 178.171,224.000 177.642 C 224.000 177.298,206.615 159.892,206.078 159.700 C 205.925 159.645,205.024 161.211,204.075 163.180 C 201.177 169.198,197.421 175.084,192.583 181.188 C 191.565 182.471,182.471 191.565,181.188 192.583 C 174.041 198.248,166.515 202.816,159.400 205.809 C 155.030 207.646,154.428 207.878,152.600 208.429 C 151.720 208.694,150.640 209.052,150.200 209.225 C 149.760 209.398,148.860 209.651,148.200 209.788 C 147.540 209.924,146.280 210.219,145.400 210.443 C 132.503 213.725,114.579 213.379,101.400 209.594 C 100.520 209.341,99.303 209.038,98.695 208.921 C 98.087 208.804,97.492 208.549,97.371 208.354 C 97.251 208.159,96.801 208.000,96.371 208.000 C 95.941 208.000,95.277 207.841,94.895 207.647 C 94.513 207.452,93.750 207.111,93.200 206.887 C 70.657 197.738,53.268 180.887,44.194 159.400 C 43.822 158.520,43.366 157.440,43.181 157.000 C 38.533 145.992,36.260 129.487,37.600 116.484 C 38.572 107.059,41.243 96.750,44.343 90.462 C 44.814 89.506,45.200 88.471,45.200 88.162 C 45.200 87.853,45.380 87.600,45.600 87.600 C 45.820 87.600,46.000 87.335,46.000 87.012 C 46.000 86.689,46.377 85.744,46.839 84.912 C 47.300 84.080,48.230 82.410,48.905 81.200 C 55.686 69.046,69.046 55.686,81.200 48.905 C 82.410 48.230,84.080 47.300,84.912 46.839 C 85.744 46.377,86.689 46.000,87.012 46.000 C 87.335 46.000,87.600 45.820,87.600 45.600 C 87.600 45.380,87.853 45.200,88.162 45.200 C 88.471 45.200,89.506 44.814,90.462 44.343 C 95.015 42.099,102.991 39.708,110.200 38.427 C 125.111 35.778,143.512 37.643,157.000 43.171 C 167.145 47.328,175.135 52.275,183.800 59.762 C 185.509 61.239,185.028 61.580,194.181 52.419 L 202.555 44.038 200.769 42.319 C 179.570 21.921,145.080 10.207,115.200 13.259 M258.966 218.565 C 256.002 219.493,255.005 220.393,237.450 237.968 C 217.169 258.273,216.857 258.719,218.407 265.256 C 219.226 268.710,219.002 268.475,269.559 319.000 C 323.175 372.584,319.595 369.333,325.007 369.333 C 330.225 369.333,330.047 369.473,349.729 349.849 C 369.475 330.160,369.333 330.340,369.333 325.000 C 369.333 319.489,372.683 323.177,318.551 269.094 C 291.738 242.305,269.260 220.062,268.600 219.664 C 265.979 218.083,261.967 217.626,258.966 218.565 " stroke="none" fill="#eee" fill-rule="evenodd"></path>
        <path id="path1" d="M250.200 38.150 C 249.100 38.427,247.840 38.794,247.400 38.964 C 246.960 39.135,246.060 39.472,245.400 39.712 C 241.814 41.018,238.090 44.444,214.144 68.466 C 198.200 84.461,189.485 93.487,189.105 94.400 C 187.121 99.171,187.117 101.045,189.083 105.600 C 189.758 107.162,236.708 154.515,240.400 157.357 C 242.639 159.081,245.921 160.800,246.972 160.800 C 247.291 160.800,247.652 160.961,247.774 161.158 C 248.246 161.922,252.072 162.104,270.889 162.260 L 290.378 162.422 291.928 160.872 C 293.002 159.798,293.556 158.838,293.730 157.746 C 294.263 154.417,294.109 154.220,279.429 139.345 C 271.863 131.679,265.757 125.270,265.860 125.103 C 266.156 124.625,291.246 124.741,293.669 125.232 C 296.787 125.864,298.907 126.429,299.695 126.839 C 300.077 127.038,300.574 127.200,300.799 127.200 C 301.895 127.200,308.650 130.864,310.400 132.408 C 310.950 132.894,312.014 133.764,312.765 134.342 C 315.906 136.763,322.800 146.936,322.800 149.151 C 322.800 149.404,322.962 149.923,323.161 150.305 C 323.571 151.093,324.136 153.213,324.768 156.331 C 325.044 157.694,325.200 165.942,325.200 179.231 L 325.200 200.000 350.000 200.000 L 374.800 200.000 374.796 178.700 C 374.792 154.802,374.443 150.073,371.983 140.600 C 366.580 119.796,353.906 102.073,335.587 89.705 C 332.206 87.423,326.262 84.282,321.600 82.315 C 308.918 76.966,298.019 75.225,277.100 75.209 C 270.995 75.204,266.000 75.071,266.000 74.913 C 266.000 74.755,272.186 68.410,279.747 60.813 C 294.601 45.886,294.316 46.258,293.720 42.585 C 293.409 40.667,291.277 38.578,289.308 38.264 C 285.959 37.728,252.263 37.630,250.200 38.150 M25.200 243.562 C 25.200 257.727,25.371 268.780,25.624 270.955 C 29.309 302.643,47.164 327.969,75.274 341.382 C 77.830 342.602,80.122 343.600,80.367 343.600 C 80.611 343.600,81.168 343.780,81.605 344.000 C 82.042 344.220,82.758 344.580,83.195 344.800 C 83.632 345.020,84.264 345.200,84.600 345.200 C 84.936 345.200,85.523 345.362,85.905 345.561 C 86.713 345.981,90.620 347.028,94.800 347.944 C 101.160 349.339,110.541 350.000,123.959 350.000 C 129.481 350.000,134.000 350.129,134.000 350.287 C 134.000 350.445,127.790 356.801,120.200 364.411 C 105.325 379.326,106.070 378.367,106.375 382.200 C 106.737 386.758,108.005 387.053,128.432 387.336 C 149.777 387.632,152.181 387.336,157.960 383.706 C 161.073 381.751,209.645 333.277,210.735 331.039 C 212.999 326.387,212.835 322.088,210.251 318.335 C 208.773 316.189,160.823 268.597,158.621 267.091 C 155.887 265.220,153.296 264.152,149.600 263.374 C 146.249 262.668,110.519 262.494,109.242 263.177 C 106.335 264.733,105.318 269.566,107.360 272.125 C 107.920 272.826,114.222 279.339,121.364 286.598 C 131.669 297.073,134.220 299.869,133.724 300.147 C 132.061 301.077,106.388 300.142,102.412 299.005 C 89.006 295.174,79.629 285.526,75.972 271.800 C 75.055 268.358,74.800 265.751,74.800 259.818 L 74.800 253.297 73.500 252.778 C 67.638 250.438,57.235 245.219,54.380 243.186 C 53.773 242.754,53.163 242.400,53.025 242.400 C 52.527 242.400,44.514 236.845,40.487 233.709 C 35.605 229.906,34.242 228.701,29.100 223.648 L 25.200 219.815 25.200 243.562 " stroke="none" fill="#EF30B2" fill-rule="evenodd"></path>
    </g>
</svg>